<?xml version="1.0" encoding="utf-8"?>
<!-- Generated by IcoMoon.io -->
<!DOCTYPE svg PUBLIC "-//W3C//DTD SVG 1.1//EN" "http://www.w3.org/Graphics/SVG/1.1/DTD/svg11.dtd">

<svg version="1.1" xmlns="http://www.w3.org/2000/svg" xmlns:xlink="http://www.w3.org/1999/xlink" width="272" height="32" viewBox="0 0 272 32">
<defs>
<g id="icon-home">
	<path class="path1" d="M32 18.451l-16-12.42-16 12.42v-5.064l16-12.42 16 12.42zM28 18v12h-8v-8h-8v8h-8v-12l12-9z" />
</g>
<g id="icon-phone-hang-up">
	<path class="path1" d="M31.793 18c0.25 1.734 0.413 4.106-0.364 5.014-1.286 1.501-9.428 1.501-9.428-1.501 0-1.512 1.339-2.504 0.053-4.006-1.265-1.477-3.532-1.501-6.054-1.501-2.521 0-4.789 0.024-6.054 1.501-1.286 1.501 0.054 2.493 0.054 4.006 0 3.003-8.143 3.003-9.429 1.501-0.777-0.908-0.615-3.28-0.364-5.014 0.193-1.157 0.679-2.406 2.236-4 0-0 0-0 0-0 2.336-2.179 5.87-3.961 13.432-3.999v-0.001c0.042 0 0.083 0 0.125 0 0.042-0 0.083-0 0.125-0v0.001c7.562 0.038 11.096 1.82 13.432 3.999 0 0 0 0 0 0 1.557 1.594 2.043 2.842 2.236 4z" />
</g>
<g id="icon-envelope">
	<path class="path1" d="M29 4h-26c-1.65 0-3 1.35-3 3v20c0 1.65 1.35 3 3 3h26c1.65 0 3-1.35 3-3v-20c0-1.65-1.35-3-3-3zM12.461 17.199l-8.461 6.59v-15.676l8.461 9.086zM5.512 8h20.976l-10.488 7.875-10.488-7.875zM12.79 17.553l3.21 3.447 3.21-3.447 6.58 8.447h-19.579l6.58-8.447zM19.539 17.199l8.461-9.086v15.676l-8.461-6.59z" />
</g>
<g id="icon-user">
	<path class="path1" d="M8 10c0-4.418 3.582-8 8-8s8 3.582 8 8c0 4.418-3.582 8-8 8-4.418 0-8-3.582-8-8zM24 20h-16c-4.418 0-8 3.582-8 8v2h32v-2c0-4.418-3.582-8-8-8z" />
</g>
<g id="icon-menu">
	<path class="path1" d="M2 6h28v6h-28zM2 14h28v6h-28zM2 22h28v6h-28z" />
</g>
<g id="icon-eye">
	<path class="path1" d="M16 10c-6.543 0-12.351 3.142-16 8 3.649 4.858 9.457 8 16 8 6.543 0 12.351-3.142 16-8-3.649-4.858-9.457-8-16-8zM14 14c1.105 0 2 0.895 2 2s-0.895 2-2 2-2-0.895-2-2 0.895-2 2-2zM24.175 22.041c-1.239 0.633-2.552 1.121-3.901 1.449-1.39 0.339-2.828 0.51-4.274 0.51-1.446 0-2.884-0.172-4.274-0.51-1.35-0.329-2.662-0.816-3.901-1.449-1.969-1.006-3.757-2.388-5.239-4.041 1.482-1.653 3.269-3.034 5.239-4.041 1.011-0.516 2.070-0.936 3.159-1.251-0.621 0.945-0.983 2.076-0.983 3.292 0 3.314 2.686 6 6 6 3.314 0 6-2.686 6-6 0-1.216-0.362-2.347-0.983-3.292 1.089 0.316 2.148 0.735 3.159 1.251 1.969 1.006 3.757 2.388 5.239 4.041-1.482 1.653-3.269 3.034-5.239 4.041zM26.904 7.616c-3.398-1.736-7.066-2.616-10.904-2.616-3.838 0-7.506 0.88-10.904 2.616-1.837 0.938-3.554 2.122-5.096 3.502v3.413c1.729-1.83 3.772-3.367 6.006-4.509 3.113-1.591 6.476-2.397 9.994-2.397s6.881 0.807 9.994 2.397c2.234 1.142 4.277 2.679 6.006 4.509v-3.413c-1.542-1.38-3.26-2.564-5.096-3.502z" />
</g>
</defs>

<g fill="#000000">
	<use xlink:href="#icon-home" transform="translate(0 0)"></use>
	<use xlink:href="#icon-phone-hang-up" transform="translate(48 0)"></use>
	<use xlink:href="#icon-envelope" transform="translate(96 0)"></use>
	<use xlink:href="#icon-user" transform="translate(144 0)"></use>
	<use xlink:href="#icon-menu" transform="translate(192 0)"></use>
	<use xlink:href="#icon-eye" transform="translate(240 0)"></use>
</g>

</svg>
